<?xml version="1.0" encoding="utf-8"?>
<!-- Generator: Adobe Illustrator 19.0.0, SVG Export Plug-In . SVG Version: 6.00 Build 0)  -->
<!DOCTYPE svg PUBLIC "-//W3C//DTD SVG 1.1//EN" "http://www.w3.org/Graphics/SVG/1.1/DTD/svg11.dtd">
<svg version="1.1" id="Layer_1" xmlns="http://www.w3.org/2000/svg" xmlns:xlink="http://www.w3.org/1999/xlink" x="0px" y="0px"
	 viewBox="0 0 359.26 191.274" enable-background="new 0 0 359.26 191.274" xml:space="preserve">
<g id="XMLID_3_">
	<g id="XMLID_2_">
		<path id="XMLID_4_" fill="#FFFFFF" d="M0,102.521v-81.4h14.85v6.49c3.41-4.29,9.79-7.26,16.39-7.26
			c16.61,0,26.51,11.11,26.51,30.91c0,20.02-10.89,30.91-26.84,30.91c-6.6,0-12.98-2.53-16.061-6.82v27.17H0z M14.521,51.26
			c0,15.4,6.38,18.59,14.19,18.59s13.86-5.39,13.86-18.59s-6.05-18.59-13.86-18.59S14.521,35.86,14.521,51.26z"/>
		<path id="XMLID_7_" fill="#FFFFFF" d="M102.97,81.4v-5.72c-2.2,2.31-7.59,6.49-17.27,6.49c-13.42,0-20.46-9.46-20.46-20.57V21.12
			h14.85v37.62c0,7.7,3.96,11.33,10.34,11.33c8.36,0,12.21-5.94,12.21-13.42V21.12h14.85V81.4H102.97z"/>
		<path id="XMLID_9_" fill="#FFFFFF" d="M128.048,81.4V0h14.85v27.61c3.41-4.29,9.79-7.26,16.39-7.26
			c16.61,0,26.51,11.11,26.51,30.91c0,20.02-10.89,30.91-26.84,30.91c-6.6,0-12.98-2.53-16.061-6.82v6.05H128.048z M142.568,51.26
			c0,15.4,6.38,18.59,14.19,18.59s13.86-5.39,13.86-18.59s-6.05-18.59-13.86-18.59S142.568,35.86,142.568,51.26z"/>
		<path id="XMLID_12_" fill="#FFFFFF" d="M193.76,81.4V0h14.85v81.4H193.76z"/>
		<path id="XMLID_14_" fill="#FFFFFF" d="M219.026,14.19V0h14.85v14.19H219.026z M219.026,81.4V21.12h14.85V81.4H219.026z"/>
		<path id="XMLID_17_" fill="#FFFFFF" d="M241.653,51.7c0-21.01,12.21-31.35,28.71-31.35c14.85,0,25.41,7.92,26.95,22.99h-15.18
			c-0.77-6.6-4.95-10.67-11.55-10.67c-7.81,0-13.64,5.39-13.64,18.59s5.61,18.59,13.31,18.59c6.38,0,11.11-3.63,11.88-10.23h15.18
			c-1.1,13.09-10.01,22.55-26.73,22.55C253.753,82.17,241.653,71.72,241.653,51.7z"/>
	</g>
	<path id="XMLID_19_" fill="#FFFFFF" d="M102.9,169.384v-6.05c-3.08,4.29-9.79,6.82-16.39,6.82c-15.95,0-26.51-10.89-26.51-30.91
		c0-19.14,10.34-30.91,26.95-30.91c6.6,0,12.54,2.97,15.95,7.26v-27.61h14.85v81.4H102.9z M75.18,139.244
		c0,13.2,6.05,18.59,13.86,18.59s14.19-3.19,14.19-18.59s-6.38-18.59-14.19-18.59S75.18,126.044,75.18,139.244z"/>
	<path id="XMLID_22_" fill="#FFFFFF" d="M128.276,102.174v-14.19h14.85v14.19H128.276z M128.276,169.384v-60.28h14.85v60.28H128.276
		z"/>
	<path id="XMLID_25_" fill="#FFFFFF" d="M177.235,108.334c7.7,0,13.42,2.75,16.5,7.15l0.11-6.38h14.739v59.29
		c0,11.33-6.6,22.88-27.939,22.88c-22.771,0-27.5-11.77-27.721-20.35h15.181c0,2.09,0.989,8.47,12.1,8.47
		c8.91,0,13.53-3.19,13.53-11.771v-7.7c-2.86,3.96-9.021,6.93-17.38,6.93c-8.03,0-24.641-5.06-24.641-28.71
		C151.715,117.244,165.135,108.334,177.235,108.334z M180.315,155.634c6.71,0,13.53-4.18,13.53-17.49s-6.82-17.49-13.53-17.49
		s-13.641,4.18-13.641,17.49S173.605,155.634,180.315,155.634z"/>
	<path id="XMLID_28_" fill="#FFFFFF" d="M218.957,102.174v-14.19h14.851v14.19H218.957z M218.957,169.384v-60.28h14.851v60.28
		H218.957z"/>
	<path id="XMLID_31_" fill="#FFFFFF" d="M264.111,169.934c-11.659,0-15.949-4.18-15.949-14.08v-34.32h-9.131v-12.43h9.131v-16.72
		h14.85v16.72h13.53v12.43h-13.53v30.03c0,4.51,1.21,5.28,6.05,5.28c2.86,0,6.16-0.22,6.16-0.22v12.54
		C275.222,169.164,270.382,169.934,264.111,169.934z"/>
	<path id="XMLID_33_" fill="#FFFFFF" d="M319.133,130.334v-2.09c0-4.73-1.979-7.81-10.89-7.81c-11.22,0-11.44,6.27-11.44,8.25h-14.3
		c0-8.91,3.74-20.35,26.18-20.35c21.341,0,25.301,10.67,25.301,19.36v33.22c0,4.62,0.77,8.47,0.77,8.47h-15.18v-6.05
		c-4.18,4.29-10.23,6.82-18.7,6.82c-11.88,0-20.9-6.82-20.9-18.92c0-13.75,13.09-16.94,18.37-17.71L319.133,130.334z
		 M319.133,141.664c0,0-10.45,1.54-15.18,2.42c-2.42,0.44-4.73,0.99-6.38,2.31c-1.431,1.1-2.311,2.75-2.311,4.95
		c0,1.65,0.66,7.26,8.91,7.26c4.84,0,9.13-1.76,11.44-4.07c2.859-2.97,3.52-6.82,3.52-9.68V141.664z"/>
	<path id="XMLID_36_" fill="#FFFFFF" d="M344.409,169.384v-81.4h14.851v81.4H344.409z"/>
</g>
</svg>
